<svg width="60" height="29" viewBox="0 0 60 29" fill="none" xmlns="http://www.w3.org/2000/svg">
<g id="paypal-logo">
<g id="Group">
<g id="Group_2">
<path id="Vector" d="M10.754 9.52419C10.5576 9.13021 10.247 8.80527 9.86133 8.56126C9.45902 8.31488 8.98411 8.14229 8.44135 8.03993C7.88907 7.93995 7.25109 7.89471 6.51193 7.88757L3.09945 7.88995C2.74475 7.89472 2.39719 8.17085 2.31387 8.51365L0.0178531 18.5142C-0.0654654 18.8523 0.157114 19.1356 0.511813 19.1356H2.14604C2.50074 19.1356 2.85187 18.8606 2.93043 18.5142L3.49104 16.0861C3.56603 15.7481 3.91597 15.466 4.27424 15.466H4.74201C6.74046 15.4636 8.2878 15.0553 9.39951 14.2376C10.5172 13.4187 11.0683 12.3368 11.0683 10.9965C11.0671 10.4097 10.9707 9.91697 10.754 9.52419ZM7.22966 12.7915C6.7357 13.1533 6.04892 13.3342 5.16336 13.3342H4.76343C4.40755 13.3342 4.18973 13.0533 4.26709 12.7105L4.75867 10.5871C4.82771 10.2467 5.18598 9.96458 5.53711 9.96696L6.07272 9.96339C6.69761 9.96339 7.17491 10.0717 7.4939 10.2812C7.80932 10.4883 7.96762 10.818 7.96524 11.2548C7.97477 11.919 7.72124 12.4296 7.22966 12.7915Z" fill="white"/>
</g>
</g>
<g id="Group_3">
<g id="Group_4">
<path id="Vector_2" d="M57.3409 8.67077L57.2386 8.70172L57.1017 8.72077L56.9339 8.69458L56.8482 8.61126L56.8089 8.48033L56.8065 8.28394V7.55669H57.3529V7.33172H56.8065V6.87823H56.5363V7.33172H56.353V7.55669H56.5363V8.40296L56.6625 8.82194L57.0339 8.95525L57.1898 8.94215L57.3552 8.91002V8.67077H57.3409Z" fill="white"/>
</g>
</g>
<g id="Group_5">
<g id="Group_6">
<path id="Vector_3" d="M59.875 7.44718L59.4846 7.2865L59.1966 7.34482L58.9038 7.5424L58.7336 7.35315L58.4574 7.28769L58.192 7.34601L57.9408 7.50789V7.33173H57.6754V8.92073H57.9397V7.73404L58.1622 7.59597L58.3836 7.54121L58.5645 7.57335L58.6538 7.665L58.6931 7.81736L58.7062 8.01375V8.92192H58.9716V7.90543L58.9669 7.82093L58.9621 7.74356L59.1882 7.59954L59.412 7.5436L59.587 7.57573L59.6822 7.66738L59.7155 7.82093L59.7334 8.01494V8.92311H60V7.89115L59.875 7.44718Z" fill="white"/>
</g>
</g>
<g id="Group_7">
<g id="Group_8">
<path id="Vector_4" d="M18.6348 10.9537C18.0182 10.6061 17.0446 10.4324 15.7139 10.4324C15.0556 10.4324 14.3998 10.4835 13.7368 10.5859C13.2476 10.6609 13.2 10.6752 12.8989 10.7406C12.2776 10.8763 12.18 11.4965 12.18 11.4965L11.98 12.3189C11.8669 12.8438 12.1693 12.8236 12.2954 12.7796C12.5668 12.6986 12.718 12.6153 13.2726 12.4915C13.8023 12.3713 14.3605 12.2808 14.8033 12.2868C15.4568 12.2868 15.9567 12.3558 16.29 12.4963C16.6185 12.6391 16.7827 12.8843 16.7827 13.239L16.7542 13.4699L16.5185 13.6151C15.5913 13.6734 14.9212 13.7591 14.1082 13.877C13.3131 13.9877 12.6156 14.1817 12.036 14.4471C11.4134 14.7209 10.9516 15.0887 10.6291 15.5564C10.3172 16.0266 10.1613 16.5967 10.1613 17.2657C10.1613 17.8953 10.3874 18.4155 10.8266 18.8178C11.2682 19.2129 11.8515 19.4058 12.549 19.4058C12.9905 19.4034 13.3321 19.3689 13.575 19.3105L14.3665 19.038L15.0366 18.6666L15.6532 18.2595L15.6615 18.2714L15.5996 18.5333L15.596 18.544V18.5464C15.5294 18.8654 15.7222 19.1272 16.0329 19.1582L16.0388 19.1653H16.0674H17.3207H17.5564L17.5778 19.1558C17.904 19.1177 18.2098 18.8559 18.2813 18.544L19.4727 13.3866L19.5346 12.9664L19.5632 12.5725C19.5679 11.8416 19.2525 11.3001 18.6348 10.9537ZM15.9995 16.7527L15.7448 17.0883L15.1021 17.4204C14.7997 17.543 14.5129 17.6049 14.2475 17.6049C13.8452 17.6049 13.5297 17.5466 13.3167 17.4275L13.0013 16.8146C13.0013 16.4825 13.0774 16.2194 13.2405 16.0171L13.9332 15.5457C14.2296 15.4457 14.5914 15.3612 15.0104 15.3029C15.3842 15.2565 16.1221 15.172 16.2185 15.1696L16.3316 15.3684C16.309 15.4815 16.0995 16.3575 15.9995 16.7527Z" fill="white"/>
</g>
</g>
<g id="Group_9">
<g id="Group_10">
<path id="Vector_5" d="M48.3175 10.9608C47.6974 10.6133 46.725 10.4383 45.3978 10.4383C44.7396 10.4383 44.0826 10.4895 43.422 10.5954C42.9316 10.6668 42.8828 10.6823 42.5805 10.7466C41.9603 10.8811 41.8639 11.5036 41.8639 11.5036L41.664 12.3249C41.5521 12.8498 41.8473 12.826 41.9853 12.7855C42.2579 12.7046 42.4043 12.6248 42.9542 12.4963C43.4815 12.3772 44.0445 12.2892 44.4885 12.2916C45.1395 12.2916 45.6395 12.3618 45.9715 12.5022C46.3024 12.6451 46.4643 12.8926 46.4643 13.2438L46.4393 13.4735L46.206 13.6223C45.2693 13.6782 44.598 13.7639 43.7934 13.8817C43.0006 13.9924 42.3008 14.1853 41.7199 14.4519C41.0998 14.7268 40.632 15.0946 40.313 15.5636C39.9976 16.0337 39.8441 16.6027 39.8441 17.2657C39.8441 17.9001 40.0678 18.4202 40.513 18.8201C40.957 19.2141 41.5342 19.4117 42.2317 19.4117C42.6709 19.4069 43.0125 19.3784 43.2565 19.3153L44.0457 19.0463L44.7218 18.6749L45.3336 18.2631L45.3443 18.2762L45.2883 18.5404L45.2824 18.5452L45.2848 18.55C45.211 18.8689 45.405 19.1332 45.7192 19.1618L45.7216 19.1677H45.7501C45.9561 19.1677 46.6678 19.1677 47.0071 19.1677H47.238L47.263 19.1594C47.5855 19.1201 47.8902 18.8582 47.9581 18.5428L49.1531 13.3925L49.2162 12.97L49.2507 12.5748C49.2519 11.8464 48.9401 11.3072 48.3175 10.9608ZM45.6883 16.7598L45.4228 17.099L44.786 17.4287C44.4837 17.5501 44.1957 17.6132 43.935 17.6132C43.5196 17.6132 43.2125 17.5537 43.0054 17.4347L42.6864 16.8241C42.6864 16.4908 42.7638 16.2301 42.9197 16.0242C43.078 15.8302 43.3196 15.6707 43.6196 15.5541C43.9124 15.4541 44.2742 15.3731 44.6956 15.3124C45.0669 15.266 45.8025 15.1791 45.8977 15.1779L46.0132 15.3767C45.9965 15.4898 45.7859 16.3623 45.6883 16.7598Z" fill="white"/>
</g>
</g>
<g id="Group_11">
<g id="Group_12">
<path id="Vector_6" d="M40.4321 9.5611C40.2274 9.16474 39.9203 8.84456 39.5322 8.5946C39.1347 8.34703 38.6633 8.17325 38.1123 8.07327C37.5707 7.97686 36.9244 7.92448 36.19 7.92329L32.7727 7.92567C32.4168 7.93162 32.0752 8.20777 31.9931 8.54699L29.6947 18.5523C29.6114 18.8916 29.8399 19.1725 30.1875 19.1725L31.8241 19.1701C32.1716 19.1725 32.5275 18.894 32.6097 18.5512L33.1631 16.1218C33.2441 15.7838 33.5952 15.4993 33.9487 15.5017H34.4165C36.4173 15.5017 37.9682 15.0899 39.0847 14.2745C40.1881 13.4497 40.7463 12.3701 40.7463 11.0287C40.7404 10.4443 40.6392 9.95031 40.4321 9.5611ZM36.9077 12.8331C36.4149 13.1878 35.727 13.3688 34.8462 13.3688H34.4391C34.088 13.3723 33.8606 13.0867 33.9392 12.7462L34.4343 10.6264C34.5069 10.2872 34.8616 10.0027 35.2152 10.0063L35.7448 10.0027C36.3733 10.0063 36.8446 10.1098 37.166 10.3193C37.4862 10.5288 37.6373 10.8573 37.6409 11.2929C37.6445 11.9571 37.3981 12.4689 36.9077 12.8331Z" fill="white"/>
</g>
</g>
<g id="Group_13">
<g id="Group_14">
<path id="Vector_7" d="M54.445 8.62673C54.52 8.28513 54.3058 8.0078 53.9547 8.01256H52.4906C52.1907 8.01256 51.9205 8.23514 51.7884 8.5089L51.7074 8.63507L51.6336 8.95882L49.5876 18.2595L49.5209 18.5452L49.5233 18.5523C49.4555 18.8582 49.6435 19.0891 49.9339 19.1332L49.9589 19.1677H51.4789C51.7765 19.1677 52.0562 18.9416 52.1835 18.663L52.2621 18.544L54.4498 8.62792L54.445 8.62673Z" fill="white"/>
</g>
</g>
<g id="Group_15">
<g id="Group_16">
<path id="Vector_8" d="M29.7399 10.5573C29.3531 10.5621 27.7808 10.5573 27.7808 10.5573C27.4284 10.5573 26.9761 10.8418 26.7524 11.181C26.7524 11.181 24.4123 15.197 24.185 15.6005L23.9136 15.5969L23.1851 11.2084C23.1042 10.8632 22.7436 10.5681 22.2948 10.5681L20.8308 10.5704C20.4785 10.5704 20.2619 10.8513 20.3416 11.1941C20.3416 11.1941 21.4533 17.5204 21.6759 19.0094C21.7794 19.8307 21.6628 19.9771 21.6628 19.9771L20.2154 22.4981C20.0012 22.8409 20.1166 23.1206 20.4678 23.1206L22.1603 23.1182C22.5126 23.1182 22.9757 22.8409 23.1851 22.4969L29.6959 11.4846C29.6959 11.4857 30.322 10.5442 29.7399 10.5573Z" fill="white"/>
</g>
</g>
</g>
</svg>
